<?xml version="1.0" encoding="utf-8"?>
<!-- Generator: Adobe Illustrator 25.0.0, SVG Export Plug-In . SVG Version: 6.00 Build 0)  -->
<svg version="1.1" id="Layer_1" xmlns="http://www.w3.org/2000/svg" xmlns:xlink="http://www.w3.org/1999/xlink" x="0px" y="0px"
	 viewBox="0 0 59.5 32.5" style="enable-background:new 0 0 59.5 32.5;" xml:space="preserve">
<style type="text/css">
	.st0{fill-rule:evenodd;clip-rule:evenodd;fill:#58F949;}
	.st1{fill-rule:evenodd;clip-rule:evenodd;fill:#2EABDB;}
	.st2{fill-rule:evenodd;clip-rule:evenodd;fill:#1BE1D4;}
</style>
<path class="st0" d="M36.2,29.5c2.2,3.7,7.6,3.7,9.8,0L58.4,8.8c2.3-3.8-0.5-8.6-4.9-8.6H28.8c-4.4,0-7.2,4.8-4.9,8.6L36.2,29.5z"/>
<path class="st1" d="M13.4,29.5c2.2,3.7,7.6,3.7,9.8,0L35.6,8.8c2.3-3.8-0.5-8.6-4.9-8.6H6C1.6,0.2-1.1,5,1.1,8.8L13.4,29.5z"/>
<path class="st0" d="M36.2,29.5c2.2,3.7,7.6,3.7,9.8,0L58.4,8.8c2.3-3.8-0.5-8.6-4.9-8.6H28.8c-4.4,0-7.2,4.8-4.9,8.6L36.2,29.5z"/>
<path class="st2" d="M23.9,8.8l5.8,9.8l5.8-9.8c2.3-3.8-0.5-8.6-4.9-8.6h-1.8C24.4,0.2,21.7,5,23.9,8.8z"/>
</svg>
